<?xml version="1.0" encoding="UTF-8" standalone="no"?><svg xmlns="http://www.w3.org/2000/svg" xmlns:xlink="http://www.w3.org/1999/xlink" contentStyleType="text/css" height="1110px" preserveAspectRatio="none" style="width:1066px;height:1110px;background:#FFFFFF;" version="1.1" viewBox="0 0 1066 1110" width="1066px" zoomAndPan="magnify"><defs/><g><!--MD5=[56ca3bce0edf42839ca39cd9d01849b7]
cluster Public Internet--><g id="cluster_Public Internet"><path d="M346.7019,138.502 C348.4699,133.0182 353.3608,132.0813 357.4092,135.8684 C360.963,131.4605 364.4579,131.7967 367.78,136.1429 C371.2948,129.2019 376.2983,129.9165 380.5094,135.4313 C382.8363,130.5126 388.2317,128.2926 391.817,134.1053 C395.5987,128.3422 399.7455,129.8356 403.0449,134.6188 C405.5514,128.4922 411.002,128.503 413.989,134.1731 C419.2196,129.4248 423.5172,129.1916 426.5521,136.4673 C428.6059,131.8239 433.6169,131.3202 436.6679,135.2971 C441.1412,130.4495 446.9363,130.9837 449.2236,137.6756 C453.3297,131.4393 458.5433,132.4943 461.6411,138.6832 C466.7867,142.3682 466.1386,146.5329 461.5088,150.1047 C469.5214,153.5971 469.8676,159.3036 463.9305,165.0555 C470.5486,169.2865 469.4185,173.1736 464.0867,177.5539 C469.3148,181.2937 470.2359,187.1965 463.7426,190.6278 C469.9477,194.5439 469.6884,201.214 462.6083,204.0034 C468.5894,209.0484 469.5378,215.3163 461.6548,219.5087 C458.7194,224.4056 452.9866,225.6883 449.8224,219.7589 C446.3349,225.6369 441.4765,226.419 437.2438,220.5573 C434.1271,225.5791 431.0186,226.4043 426.9095,221.6011 C423.2498,227.6157 418.227,226.9207 415.0058,221.1579 C411.5271,227.4253 406.8692,227.6601 402.3279,222.3183 C399.3414,226.8732 394.0975,227.6582 391.3817,222.0275 C386.834,227.6188 383.5781,225.839 380.2595,220.7478 C376.6277,224.9431 372.5937,225.7821 369.6821,219.9853 C366.0388,225.0747 359.8963,224.884 357.4257,218.7092 C353.844,224.4423 349.9811,225.3374 345.5613,219.5741 C336.6517,216.4618 335.9393,210.3734 343.0755,204.5979 C335.9224,202.6351 333.9768,195.8602 339.8697,190.8544 C332.1892,188.9455 331.8466,184.5684 335.9745,178.8332 C329.426,171.8104 333.0332,166.6129 340.6031,163.9938 C335.5786,159.3814 337.4109,154.0502 343.1429,151.6511 C337.6284,145.9505 340.0384,140.9065 346.7019,138.502 " style="stroke:#181818;stroke-width:1.0;fill:none;"/><text fill="#000000" font-family="sans-serif" font-size="14" font-weight="bold" lengthAdjust="spacing" textLength="115" x="344.61" y="154.4951">Public Internet</text></g><!--MD5=[5d1ca8c6bef79d0f88b7987a14d8d5b4]
cluster Factset--><g id="cluster_Factset"><path d="M349.11,289.5 L408.11,289.5 A3.75,3.75 0 0 1 410.61,292 L417.61,311.7969 L943.11,311.7969 A2.5,2.5 0 0 1 945.61,314.2969 L945.61,1100.5 A2.5,2.5 0 0 1 943.11,1103 L349.11,1103 A2.5,2.5 0 0 1 346.61,1100.5 L346.61,292 A2.5,2.5 0 0 1 349.11,289.5 " style="stroke:#000000;stroke-width:1.5;fill:none;"/><line style="stroke:#000000;stroke-width:1.5;fill:none;" x1="346.61" x2="417.61" y1="311.7969" y2="311.7969"/><text fill="#000000" font-family="sans-serif" font-size="14" font-weight="bold" lengthAdjust="spacing" textLength="58" x="350.61" y="304.4951">Factset</text></g><!--MD5=[5ad234af548c0e51a7c9d51d025661bb]
cluster factset.io--><g id="cluster_factset.io"><path d="M473.9166,443.2495 C478.44,434.5879 487.4892,434.2434 492.5416,442.6731 C498.7935,432.9285 504.5172,433.8186 511.0553,442.3837 C516.8113,431.2238 524.1981,430.9372 530.9471,441.4733 C536.924,434.5545 542.9275,434.0574 547.8264,442.6465 C553.9926,432.3108 561.9985,432.8526 569.1792,441.5057 C579.2525,433.4346 588.8982,435.2601 592.61,448.5 C593.8901,448.7512 593.9569,449.6034 593.3221,450.5272 C601.7561,454.7976 600.7591,460.0254 594.5423,465.4905 C601.9097,469.7931 602.053,476.1694 595.774,481.5206 C602.2517,485.8073 601.1375,489.8846 596.0546,494.4227 C603.7938,498.0951 603.2073,506.0064 596.9381,510.4508 C605.4203,513.6472 605.6679,520.3836 599.244,525.8168 C607.2712,530.1508 605.747,535.9119 599.5655,540.5559 C608.4558,544.4088 608.2492,551.507 601.042,556.8211 C608.3674,562.7941 606.5453,569.0599 598.86,573.0097 C604.4404,576.9021 604.2707,581.9434 598.983,585.9393 C605.4864,592.2466 604.6062,597.8701 596.4132,601.7956 C604.0639,605.4223 604.2492,612.2331 597.9634,617.2571 C605.6753,623.8349 604.3066,628.7348 595.8925,633.2207 C602.7841,638.0597 602.1453,644.5699 594.6518,648.2189 C600.4807,659.2878 599.5241,666.5212 585.61,669 C586.6965,669.2281 587.1608,669.7961 586.4574,670.8459 C582.3606,682.0782 575.5402,683.5901 567.0732,675.1526 C563.6834,686.2038 555.6001,688.2099 547.7962,679.447 C544.1208,689.6573 537.4876,689.3706 530.8492,682.3635 C523.8685,690.6559 515.7271,688.8486 511.1083,679.6915 C503.611,688.9453 494.6312,687.3801 490.7638,676.0959 C476.8363,682.9604 466.6229,677.2421 464.61,662 C466.5094,661.5978 467.6826,662.3506 467.2996,664.452 C459.2057,660.5039 459.7589,654.1774 466.5515,649.4852 C458.267,645.11 457.4629,640.5791 464.6688,634.2852 C457.0116,628.8928 457.1583,624.1351 464.5258,618.6057 C455.6516,614.2372 454.9307,606.3436 464.1714,601.5976 C456.5272,596.9282 458.2224,590.2939 464.6686,586.0758 C457.2198,580.8101 457.7483,576.3651 465.2665,571.7228 C457.7925,568.716 457.6166,562.149 463.016,557.1536 C456.5278,551.1953 457.4631,546.7909 464.864,542.5956 C456.2326,536.7991 456.9733,530.51 465.856,525.7445 C459.7303,520.8696 459.1082,514.2695 466.5695,510.0107 C460.1695,504.6503 459.0623,499.8614 466.342,494.3028 C458.6821,491.5059 458.5688,485.833 464.5158,481.1472 C458.3406,474.8737 458.9904,469.3586 467.299,465.6936 C456.8555,455.5046 458.3865,447.4717 471.61,441.5 C472.9894,441.0159 474.0677,441.7157 473.9166,443.2495 " style="stroke:#181818;stroke-width:1.0;fill:none;"/><text fill="#000000" font-family="sans-serif" font-size="14" font-weight="bold" lengthAdjust="spacing" textLength="74" x="491.61" y="459.4951">factset.io</text></g><!--MD5=[23555a4f9c8a267cdfd801ad53ceaf15]
entity browser--><g id="elem_browser"><rect fill="#F1F1F1" height="46.2969" rx="2.5" ry="2.5" style="stroke:#181818;stroke-width:0.5;" width="96" x="353.61" y="163.5"/><rect fill="#F1F1F1" height="10" style="stroke:#181818;stroke-width:0.5;" width="15" x="429.61" y="168.5"/><rect fill="#F1F1F1" height="2" style="stroke:#181818;stroke-width:0.5;" width="4" x="427.61" y="170.5"/><rect fill="#F1F1F1" height="2" style="stroke:#181818;stroke-width:0.5;" width="4" x="427.61" y="174.5"/><text fill="#000000" font-family="sans-serif" font-size="14" lengthAdjust="spacing" textLength="56" x="368.61" y="196.4951">browser</text></g><!--MD5=[14533ecc255b3b24a7ab7af6dc19c04d]
entity Kong--><g id="elem_Kong"><rect fill="#F1F1F1" height="46.2969" rx="2.5" ry="2.5" style="stroke:#181818;stroke-width:0.5;" width="76" x="362.61" y="324.5"/><rect fill="#F1F1F1" height="10" style="stroke:#181818;stroke-width:0.5;" width="15" x="418.61" y="329.5"/><rect fill="#F1F1F1" height="2" style="stroke:#181818;stroke-width:0.5;" width="4" x="416.61" y="331.5"/><rect fill="#F1F1F1" height="2" style="stroke:#181818;stroke-width:0.5;" width="4" x="416.61" y="335.5"/><text fill="#000000" font-family="sans-serif" font-size="14" lengthAdjust="spacing" textLength="36" x="377.61" y="357.4951">Kong</text></g><!--MD5=[44df82fb778fec0901a72cffa7010adb]
entity settings--><g id="elem_settings"><path d="M727.11,756.5 C727.11,746.5 768.61,746.5 768.61,746.5 C768.61,746.5 810.11,746.5 810.11,756.5 L810.11,798.0938 C810.11,808.0938 768.61,808.0938 768.61,808.0938 C768.61,808.0938 727.11,808.0938 727.11,798.0938 L727.11,756.5 " fill="#F1F1F1" style="stroke:#181818;stroke-width:0.5;"/><path d="M727.11,756.5 C727.11,766.5 768.61,766.5 768.61,766.5 C768.61,766.5 810.11,766.5 810.11,756.5 " fill="none" style="stroke:#181818;stroke-width:0.5;"/><text fill="#000000" font-family="sans-serif" font-size="14" lengthAdjust="spacing" textLength="63" x="737.11" y="783.4951">Screener</text><text fill="#000000" font-family="sans-serif" font-size="14" lengthAdjust="spacing" textLength="57" x="737.11" y="799.792">Settings</text></g><!--MD5=[703ea5a149c5871c74522bf38bdfe548]
entity data--><g id="elem_data"><path d="M609.11,756.5 C609.11,746.5 650.61,746.5 650.61,746.5 C650.61,746.5 692.11,746.5 692.11,756.5 L692.11,798.0938 C692.11,808.0938 650.61,808.0938 650.61,808.0938 C650.61,808.0938 609.11,808.0938 609.11,798.0938 L609.11,756.5 " fill="#F1F1F1" style="stroke:#181818;stroke-width:0.5;"/><path d="M609.11,756.5 C609.11,766.5 650.61,766.5 650.61,766.5 C650.61,766.5 692.11,766.5 692.11,756.5 " fill="none" style="stroke:#181818;stroke-width:0.5;"/><text fill="#000000" font-family="sans-serif" font-size="14" lengthAdjust="spacing" textLength="63" x="619.11" y="783.4951">Screener</text><text fill="#000000" font-family="sans-serif" font-size="14" lengthAdjust="spacing" textLength="32" x="619.11" y="799.792">Data</text></g><!--MD5=[8fc3522a43f8c7199df5e09e5bb0188e]
entity user--><g id="elem_user"><path d="M364.61,765 C364.61,755 409.61,755 409.61,755 C409.61,755 454.61,755 454.61,765 L454.61,790.2969 C454.61,800.2969 409.61,800.2969 409.61,800.2969 C409.61,800.2969 364.61,800.2969 364.61,790.2969 L364.61,765 " fill="#F1F1F1" style="stroke:#181818;stroke-width:0.5;"/><path d="M364.61,765 C364.61,775 409.61,775 409.61,775 C409.61,775 454.61,775 454.61,765 " fill="none" style="stroke:#181818;stroke-width:0.5;"/><text fill="#000000" font-family="sans-serif" font-size="14" lengthAdjust="spacing" textLength="70" x="374.61" y="791.9951">MDG User</text></g><!--MD5=[627c60346092be0e4d8a09f1e12b66a1]
entity factsetData--><g id="elem_factsetData"><path d="M540.11,1052 C540.11,1042 591.61,1042 591.61,1042 C591.61,1042 643.11,1042 643.11,1052 L643.11,1077.2969 C643.11,1087.2969 591.61,1087.2969 591.61,1087.2969 C591.61,1087.2969 540.11,1087.2969 540.11,1077.2969 L540.11,1052 " fill="#F1F1F1" style="stroke:#181818;stroke-width:0.5;"/><path d="M540.11,1052 C540.11,1062 591.61,1062 591.61,1062 C591.61,1062 643.11,1062 643.11,1052 " fill="none" style="stroke:#181818;stroke-width:0.5;"/><text fill="#000000" font-family="sans-serif" font-size="14" lengthAdjust="spacing" textLength="83" x="550.11" y="1078.9951">factset Data</text></g><!--MD5=[015112f5d8ee953a533f097448c1030c]
entity modpf--><g id="elem_modpf"><path d="M489.61,756.5 C489.61,746.5 531.61,746.5 531.61,746.5 C531.61,746.5 573.61,746.5 573.61,756.5 L573.61,798.0938 C573.61,808.0938 531.61,808.0938 531.61,808.0938 C531.61,808.0938 489.61,808.0938 489.61,798.0938 L489.61,756.5 " fill="#F1F1F1" style="stroke:#181818;stroke-width:0.5;"/><path d="M489.61,756.5 C489.61,766.5 531.61,766.5 531.61,766.5 C531.61,766.5 573.61,766.5 573.61,756.5 " fill="none" style="stroke:#181818;stroke-width:0.5;"/><text fill="#000000" font-family="sans-serif" font-size="14" lengthAdjust="spacing" textLength="42" x="499.61" y="783.4951">Model</text><text fill="#000000" font-family="sans-serif" font-size="14" lengthAdjust="spacing" textLength="64" x="499.61" y="799.792">Portfolios</text></g><!--MD5=[2bd08f2f593d3e50ec285e6dd672f43c]
entity impData--><g id="elem_impData"><rect fill="#F1F1F1" height="46.2969" rx="2.5" ry="2.5" style="stroke:#181818;stroke-width:0.5;" width="97" x="543.11" y="906.5"/><rect fill="#F1F1F1" height="10" style="stroke:#181818;stroke-width:0.5;" width="15" x="620.11" y="911.5"/><rect fill="#F1F1F1" height="2" style="stroke:#181818;stroke-width:0.5;" width="4" x="618.11" y="913.5"/><rect fill="#F1F1F1" height="2" style="stroke:#181818;stroke-width:0.5;" width="4" x="618.11" y="917.5"/><text fill="#000000" font-family="sans-serif" font-size="14" lengthAdjust="spacing" textLength="57" x="558.11" y="939.4951">impData</text></g><!--MD5=[d0c0e3b424673a6dcab5eb7d4b9ce57f]
entity Oban--><g id="elem_Oban"><rect fill="#F1F1F1" height="46.2969" rx="2.5" ry="2.5" style="stroke:#181818;stroke-width:0.5;" width="77" x="363.11" y="615"/><rect fill="#F1F1F1" height="10" style="stroke:#181818;stroke-width:0.5;" width="15" x="420.11" y="620"/><rect fill="#F1F1F1" height="2" style="stroke:#181818;stroke-width:0.5;" width="4" x="418.11" y="622"/><rect fill="#F1F1F1" height="2" style="stroke:#181818;stroke-width:0.5;" width="4" x="418.11" y="626"/><text fill="#000000" font-family="sans-serif" font-size="14" lengthAdjust="spacing" textLength="37" x="378.11" y="647.9951">Oban</text></g><!--MD5=[a1561b5692532fd3ba908ebf3f3106e5]
entity MessageSender--><g id="elem_MessageSender"><rect fill="#F1F1F1" height="46.2969" rx="2.5" ry="2.5" style="stroke:#181818;stroke-width:0.5;" width="153" x="776.11" y="615"/><rect fill="#F1F1F1" height="10" style="stroke:#181818;stroke-width:0.5;" width="15" x="909.11" y="620"/><rect fill="#F1F1F1" height="2" style="stroke:#181818;stroke-width:0.5;" width="4" x="907.11" y="622"/><rect fill="#F1F1F1" height="2" style="stroke:#181818;stroke-width:0.5;" width="4" x="907.11" y="626"/><text fill="#000000" font-family="sans-serif" font-size="14" lengthAdjust="spacing" textLength="113" x="791.11" y="647.9951">MessageSender</text></g><!--MD5=[fc2c71aa2d4bb2c20cdd0d7e43ea6cdc]
entity SMTP--><g id="elem_SMTP"><rect fill="#F1F1F1" height="46.2969" rx="2.5" ry="2.5" style="stroke:#181818;stroke-width:0.5;" width="79" x="847.11" y="754.5"/><rect fill="#F1F1F1" height="10" style="stroke:#181818;stroke-width:0.5;" width="15" x="906.11" y="759.5"/><rect fill="#F1F1F1" height="2" style="stroke:#181818;stroke-width:0.5;" width="4" x="904.11" y="761.5"/><rect fill="#F1F1F1" height="2" style="stroke:#181818;stroke-width:0.5;" width="4" x="904.11" y="765.5"/><text fill="#000000" font-family="sans-serif" font-size="14" lengthAdjust="spacing" textLength="39" x="862.11" y="787.4951">SMTP</text></g><!--MD5=[85fffaa43d56682113ba739670777676]
entity fapi--><g id="elem_fapi"><rect fill="#F1F1F1" height="62.5938" rx="2.5" ry="2.5" style="stroke:#181818;stroke-width:0.5;" width="124" x="616.61" y="606.5"/><rect fill="#F1F1F1" height="10" style="stroke:#181818;stroke-width:0.5;" width="15" x="720.61" y="611.5"/><rect fill="#F1F1F1" height="2" style="stroke:#181818;stroke-width:0.5;" width="4" x="718.61" y="613.5"/><rect fill="#F1F1F1" height="2" style="stroke:#181818;stroke-width:0.5;" width="4" x="718.61" y="617.5"/><text fill="#000000" font-family="sans-serif" font-size="14" lengthAdjust="spacing" textLength="24" x="631.61" y="639.4951">fapi</text><text fill="#000000" font-family="sans-serif" font-size="14" lengthAdjust="spacing" textLength="84" x="631.61" y="655.792">ScreenerAPI</text></g><!--MD5=[788ffb02e69a71dda3642c9a267eda8f]
entity webserver--><g id="elem_webserver"><rect fill="#F1F1F1" height="46.2969" rx="2.5" ry="2.5" style="stroke:#181818;stroke-width:0.5;" width="112" x="472.61" y="468.5"/><rect fill="#F1F1F1" height="10" style="stroke:#181818;stroke-width:0.5;" width="15" x="564.61" y="473.5"/><rect fill="#F1F1F1" height="2" style="stroke:#181818;stroke-width:0.5;" width="4" x="562.61" y="475.5"/><rect fill="#F1F1F1" height="2" style="stroke:#181818;stroke-width:0.5;" width="4" x="562.61" y="479.5"/><text fill="#000000" font-family="sans-serif" font-size="14" lengthAdjust="spacing" textLength="72" x="487.61" y="501.4951">webserver</text></g><!--MD5=[39a89f4250f9797826984c2ab55d0aba]
entity CAS--><g id="elem_CAS"><rect fill="#F1F1F1" height="46.2969" rx="2.5" ry="2.5" style="stroke:#181818;stroke-width:0.5;" width="68" x="486.61" y="615"/><rect fill="#F1F1F1" height="10" style="stroke:#181818;stroke-width:0.5;" width="15" x="534.61" y="620"/><rect fill="#F1F1F1" height="2" style="stroke:#181818;stroke-width:0.5;" width="4" x="532.61" y="622"/><rect fill="#F1F1F1" height="2" style="stroke:#181818;stroke-width:0.5;" width="4" x="532.61" y="626"/><text fill="#000000" font-family="sans-serif" font-size="14" lengthAdjust="spacing" textLength="28" x="501.61" y="647.9951">CAS</text></g><!--MD5=[188b891675e174238b061c3b7127a22a]
entity Advisor--><g id="elem_Advisor"><ellipse cx="401.61" cy="14" fill="#F1F1F1" rx="8" ry="8" style="stroke:#181818;stroke-width:0.5;"/><path d="M401.61,22 L401.61,49 M388.61,30 L414.61,30 M401.61,49 L388.61,64 M401.61,49 L414.61,64 " fill="none" style="stroke:#181818;stroke-width:0.5;"/><text fill="#000000" font-family="sans-serif" font-size="14" lengthAdjust="spacing" textLength="17" x="393.11" y="78.4951">FA</text></g><!--MD5=[daf8ac38870254aed921518ab56c6565]
entity ftp--><g id="elem_ftp"><ellipse cx="1003.61" cy="1064.5" fill="#F1F1F1" rx="8" ry="8" style="stroke:#181818;stroke-width:0.5;"/><text fill="#000000" font-family="sans-serif" font-size="14" lengthAdjust="spacing" textLength="69" x="969.11" y="1094.4951">snowflake</text></g><!--MD5=[0e60efadf80df64e8001d81ac76912ac]
entity exsmtp--><g id="elem_exsmtp"><ellipse cx="1014.61" cy="929.5" fill="#F1F1F1" rx="8" ry="8" style="stroke:#181818;stroke-width:0.5;"/><text fill="#000000" font-family="sans-serif" font-size="14" lengthAdjust="spacing" textLength="90" x="969.61" y="959.4951">externalsmtp</text></g><!--MD5=[e435ac98ddcd971fe0238bdb47303041]
link Advisor to browser--><g id="link_Advisor_browser"><path d="M401.61,81.55 C401.61,107.49 401.61,141.31 401.61,163.21 " fill="none" id="Advisor-browser" style="stroke:#181818;stroke-width:1.0;"/></g><!--MD5=[276551175eb2ede5c03857ff5292c16b]
link browser to Kong--><g id="link_browser_Kong"><path d="M353.41,188.39 C273.16,191.01 117.58,201.28 83.61,241.5 C6,333.41 262.47,345.31 362.43,346.52 " fill="none" id="browser-Kong" style="stroke:#181818;stroke-width:1.0;"/><text fill="#000000" font-family="sans-serif" font-size="13" lengthAdjust="spacing" textLength="273" x="84.61" y="262.0669">https://allspring.factsetdigitalsoutlions.com</text></g><!--MD5=[276551175eb2ede5c03857ff5292c16b]
link browser to Kong--><g id="link_browser_Kong"><path d="M399.81,214.75 C399.32,223.31 398.86,232.79 398.61,241.5 C397.88,267.88 398.62,297.99 399.39,319.19 " fill="none" id="browser-Kong-1" style="stroke:#181818;stroke-width:1.0;"/><polygon fill="#181818" points="399.59,324.37,403.2532,315.2277,399.4044,319.3734,395.2587,315.5247,399.59,324.37" style="stroke:#181818;stroke-width:1.0;"/><polygon fill="#181818" points="400.11,209.56,395.6016,218.3164,399.8239,214.5518,403.5885,218.7741,400.11,209.56" style="stroke:#181818;stroke-width:1.0;"/><text fill="#000000" font-family="sans-serif" font-size="13" lengthAdjust="spacing" textLength="108" x="399.61" y="254.5669">/cas/* websocket</text><text fill="#000000" font-family="sans-serif" font-size="13" lengthAdjust="spacing" textLength="70" x="418.61" y="269.6997">connection</text></g><!--MD5=[84d010199d649501686a490aeb705db3]
link Kong to webserver--><g id="link_Kong_webserver"><path d="M406.47,370.65 C411.66,386.01 420.76,405.74 435.61,417.5 C447.45,426.87 455.61,417.85 468.61,425.5 C486.75,436.17 502.66,454.03 513.53,468.34 " fill="none" id="Kong-webserver" style="stroke:#181818;stroke-width:1.0;"/><text fill="#000000" font-family="sans-serif" font-size="13" lengthAdjust="spacing" textLength="71" x="436.61" y="413.5669">/screener/*</text></g><!--MD5=[62d494f848ae6d8b2c09da1bc424a4f0]
link Kong to CAS--><g id="link_Kong_CAS"><path d="M393.84,370.73 C381.94,414.57 362.46,513.4 406.61,576.5 C427.43,606.25 451.21,588.26 482.61,606.5 C486.86,608.96 491.13,611.88 495.2,614.91 " fill="none" id="Kong-CAS" style="stroke:#181818;stroke-width:1.0;"/><text fill="#000000" font-family="sans-serif" font-size="13" lengthAdjust="spacing" textLength="37" x="383.61" y="496.0669">/cas/*</text></g><!--MD5=[5adee92aff5d335ada160da9fbd09c90]
link webserver to browser--><g id="link_webserver_browser"><path d="M534.03,468.21 C544.01,421.61 560.17,312.36 512.61,241.5 C499.24,221.57 476.31,208.74 454.75,200.61 " fill="none" id="webserver-to-browser" style="stroke:#181818;stroke-width:1.0;stroke-dasharray:7.0,7.0;"/><polygon fill="#181818" points="449.89,198.85,456.9928,205.6727,454.5919,200.5507,459.7139,198.1497,449.89,198.85" style="stroke:#181818;stroke-width:1.0;"/><text fill="#000000" font-family="sans-serif" font-size="13" lengthAdjust="spacing" textLength="77" x="545.61" y="344.5669">deploy once</text><text fill="#000000" font-family="sans-serif" font-size="13" lengthAdjust="spacing" textLength="61" x="553.61" y="359.6997">vuejs.app</text></g><!--MD5=[1d07632dde6907337eda54d1764d3f18]
link fapi to settings--><g id="link_fapi_settings"><path d="M701.45,673.88 C715.05,694.67 732.26,720.96 745.85,741.73 " fill="none" id="fapi-settings" style="stroke:#181818;stroke-width:1.0;"/><polygon fill="#181818" points="748.7,746.07,747.1361,736.3461,745.9695,741.8814,740.4343,740.7149,748.7,746.07" style="stroke:#181818;stroke-width:1.0;"/><polygon fill="#181818" points="698.59,669.52,700.1772,679.2401,701.3305,673.7021,706.8685,674.8554,698.59,669.52" style="stroke:#181818;stroke-width:1.0;"/></g><!--MD5=[5666a459637009b1ed11d4f8dd23567c]
link CAS to user--><g id="link_CAS_user"><path d="M502.78,661.09 C481.94,686.9 447.7,729.33 427.04,754.92 " fill="none" id="CAS-user" style="stroke:#181818;stroke-width:1.0;"/></g><!--MD5=[e5e9d087aababdcfd4e3b8eb8e38eee9]
reverse link CAS to modpf--><g id="link_CAS_modpf"><path d="M522.79,666.15 C524.63,689.23 527.28,722.34 529.2,746.26 " fill="none" id="CAS-backto-modpf" style="stroke:#181818;stroke-width:1.0;"/><polygon fill="#181818" points="522.38,661.09,519.1147,670.3818,522.781,666.0739,527.0889,669.7402,522.38,661.09" style="stroke:#181818;stroke-width:1.0;"/><text fill="#000000" font-family="sans-serif" font-size="13" lengthAdjust="spacing" textLength="56" x="527.61" y="712.5669">keyvalue</text></g><!--MD5=[ec00df0763c709db68e044d4d760d43f]
link webserver to fapi--><g id="link_webserver_fapi"><path d="M555.41,518.31 C579.83,541.84 616.08,576.76 642.95,602.64 " fill="none" id="webserver-fapi" style="stroke:#181818;stroke-width:1.0;"/><polygon fill="#181818" points="646.84,606.39,643.1379,597.2634,643.2408,602.9193,637.5849,603.0222,646.84,606.39" style="stroke:#181818;stroke-width:1.0;"/><polygon fill="#181818" points="551.72,514.76,555.4221,523.8866,555.3192,518.2307,560.9751,518.1278,551.72,514.76" style="stroke:#181818;stroke-width:1.0;"/></g><!--MD5=[a4cdff2c5cb4186613d6f52821016317]
link webserver to CAS--><g id="link_webserver_CAS"><path d="M549.39,518.91 C554.39,526.72 559.02,535.58 561.61,544.5 C565.58,558.16 565.79,562.9 561.61,576.5 C557.87,588.71 550.73,600.66 543.45,610.68 " fill="none" id="webserver-CAS" style="stroke:#181818;stroke-width:1.0;"/><polygon fill="#181818" points="540.33,614.85,548.9218,610.0353,543.3232,610.8449,542.5136,605.2463,540.33,614.85" style="stroke:#181818;stroke-width:1.0;"/><polygon fill="#181818" points="546.59,514.69,548.2156,524.4038,549.347,518.8612,554.8896,519.9926,546.59,514.69" style="stroke:#181818;stroke-width:1.0;"/></g><!--MD5=[59c8de15accd8c94481a43929d7f8332]
link webserver to Oban--><g id="link_webserver_Oban"><path d="M467.99,515.82 C454.55,523.3 441.41,532.78 431.61,544.5 C416.11,563.05 408.56,589.79 404.92,609.76 " fill="none" id="webserver-Oban" style="stroke:#181818;stroke-width:1.0;"/><polygon fill="#181818" points="404.04,614.93,409.4999,606.7331,404.8828,610.0015,401.6143,605.3845,404.04,614.93" style="stroke:#181818;stroke-width:1.0;"/><polygon fill="#181818" points="472.56,513.36,462.7396,514.1088,468.1586,515.7322,466.5352,521.1511,472.56,513.36" style="stroke:#181818;stroke-width:1.0;"/><text fill="#000000" font-family="sans-serif" font-size="13" lengthAdjust="spacing" textLength="105" x="440.11" y="557.5669">user registration</text><text fill="#000000" font-family="sans-serif" font-size="13" lengthAdjust="spacing" textLength="120" x="432.61" y="572.6997">and authentication</text></g><!--MD5=[787bbf875742a8f1699fe796aa00209c]
link webserver to MessageSender--><g id="link_webserver_MessageSender"><path d="M578.18,514.6 C637.61,541.11 736.88,585.38 798.33,612.79 " fill="none" id="webserver-to-MessageSender" style="stroke:#181818;stroke-width:1.0;"/><polygon fill="#181818" points="803.06,614.9,796.456,607.5933,798.4898,612.872,793.2111,614.9057,803.06,614.9" style="stroke:#181818;stroke-width:1.0;"/></g><!--MD5=[14b4a276761e797b5f2d28cb77a57081]
link MessageSender to SMTP--><g id="link_MessageSender_SMTP"><path d="M858.08,661.09 C864.03,685.15 873.54,723.63 879.93,749.47 " fill="none" id="MessageSender-to-SMTP" style="stroke:#181818;stroke-width:1.0;"/><polygon fill="#181818" points="881.17,754.46,882.888,744.7621,879.9674,749.6068,875.1228,746.6862,881.17,754.46" style="stroke:#181818;stroke-width:1.0;"/></g><!--MD5=[1dc3551b11fd949a4c7429eb3ce3cf43]
link SMTP to exsmtp--><g id="link_SMTP_exsmtp"><path d="M905.5,800.63 C932.85,832.68 982.56,890.93 1004.14,916.23 " fill="none" id="SMTP-to-exsmtp" style="stroke:#181818;stroke-width:1.0;"/><polygon fill="#181818" points="1007.6,920.28,1004.8004,910.8374,1004.3543,916.4767,998.7151,916.0306,1007.6,920.28" style="stroke:#181818;stroke-width:1.0;"/><text fill="#000000" font-family="sans-serif" font-size="13" lengthAdjust="spacing" textLength="92" x="962.61" y="859.0669">ships email off</text></g><!--MD5=[9c3f4defb1af6b6fac85c32071f874df]
reverse link fapi to data--><g id="link_fapi_data"><path d="M671.4,674.44 C666.88,696.62 661.12,724.9 656.81,746.07 " fill="none" id="fapi-backto-data" style="stroke:#181818;stroke-width:1.0;"/><polygon fill="#181818" points="672.4,669.52,666.7036,677.5544,671.4139,674.4218,674.5465,679.1321,672.4,669.52" style="stroke:#181818;stroke-width:1.0;"/></g><!--MD5=[dda626909326a4a29ab512de490727a9]
reverse link impData to ftp--><g id="link_impData_ftp"><path d="M645.2,943.51 C715.32,961.19 841.54,995.25 945.61,1035.5 C963.34,1042.36 983.1,1052.45 994.38,1058.46 " fill="none" id="impData-backto-ftp" style="stroke:#181818;stroke-width:1.0;"/><polygon fill="#181818" points="640.25,942.27,648.0069,948.3388,645.0999,943.486,649.9526,940.579,640.25,942.27" style="stroke:#181818;stroke-width:1.0;"/><text fill="#000000" font-family="sans-serif" font-size="13" lengthAdjust="spacing" textLength="86" x="860.61" y="1001.5669">allspring data</text></g><!--MD5=[638029d9d85d46ce7ef90b4da87b2f85]
reverse link impData to factsetData--><g id="link_impData_factsetData"><path d="M591.61,957.87 C591.61,982.65 591.61,1018.69 591.61,1041.61 " fill="none" id="impData-backto-factsetData" style="stroke:#181818;stroke-width:1.0;"/><polygon fill="#181818" points="591.61,952.76,587.61,961.76,591.61,957.76,595.61,961.76,591.61,952.76" style="stroke:#181818;stroke-width:1.0;"/><text fill="#000000" font-family="sans-serif" font-size="13" lengthAdjust="spacing" textLength="77" x="592.61" y="1001.5669">factset data</text></g><!--MD5=[03c467eb6e5fcdbb67a607edf0a650d5]
reverse link data to impData--><g id="link_data_impData"><path d="M636.76,813.72 C625.47,842.43 609.88,882.07 600.28,906.46 " fill="none" id="data-backto-impData" style="stroke:#181818;stroke-width:1.0;"/><polygon fill="#181818" points="638.67,808.85,631.6502,815.7581,636.8378,813.5022,639.0937,818.6897,638.67,808.85" style="stroke:#181818;stroke-width:1.0;"/><text fill="#000000" font-family="sans-serif" font-size="13" lengthAdjust="spacing" textLength="40" x="626.61" y="851.5669">stores</text><text fill="#000000" font-family="sans-serif" font-size="13" lengthAdjust="spacing" textLength="29" x="632.11" y="866.6997">data</text></g><!--MD5=[272f6aa80cae6a5d3c475f73f63a10cb]
reverse link user to impData--><g id="link_user_impData"><path d="M419.14,804.76 C427.62,824.99 441.76,852.44 461.61,870.5 C484.65,891.45 516.5,905.83 542.91,915.03 " fill="none" id="user-backto-impData" style="stroke:#181818;stroke-width:1.0;"/><polygon fill="#181818" points="417.21,800.05,416.9273,809.8948,419.1087,804.6755,424.3281,806.8568,417.21,800.05" style="stroke:#181818;stroke-width:1.0;"/><text fill="#000000" font-family="sans-serif" font-size="13" lengthAdjust="spacing" textLength="29" x="479.11" y="851.5669">daily</text><text fill="#000000" font-family="sans-serif" font-size="13" lengthAdjust="spacing" textLength="62" x="462.61" y="866.6997">FA import</text></g><!--MD5=[e05a3376ea01d14b95af7fee20e6f018]
reverse link modpf to impData--><g id="link_modpf_impData"><path d="M531.66,813.97 C532.8,831.59 535.92,852.83 543.61,870.5 C549.35,883.68 559.02,896.25 568.18,906.29 " fill="none" id="modpf-backto-impData" style="stroke:#181818;stroke-width:1.0;"/><polygon fill="#181818" points="531.36,808.62,527.8552,817.8241,531.6318,813.6126,535.8433,817.3892,531.36,808.62" style="stroke:#181818;stroke-width:1.0;"/><text fill="#000000" font-family="sans-serif" font-size="13" lengthAdjust="spacing" textLength="29" x="561.11" y="851.5669">daily</text><text fill="#000000" font-family="sans-serif" font-size="13" lengthAdjust="spacing" textLength="62" x="544.61" y="866.6997">FA import</text></g><!--MD5=[77e885988344dce9b0bdf9e831db4a1e]
link Oban to user--><g id="link_Oban_user"><path d="M403.19,666.12 C404.6,690.31 406.65,725.53 408.05,749.65 " fill="none" id="Oban-user" style="stroke:#181818;stroke-width:1.0;"/><polygon fill="#181818" points="408.36,754.92,411.8138,745.6966,408.0605,749.929,403.8282,746.1757,408.36,754.92" style="stroke:#181818;stroke-width:1.0;"/><polygon fill="#181818" points="402.9,661.09,399.42,670.3035,403.1852,666.0819,407.4069,669.8471,402.9,661.09" style="stroke:#181818;stroke-width:1.0;"/></g><!--MD5=[0ecd0eb7d780eab52cae1f80c36e4093]
@startuml

actor FA as Advisor 

cloud "Public Internet" {
    [browser]
}

package "Factset" {

    [Kong]

  

    cloud "factset.io" {

        [webserver]
        [CAS]

    }    

    database "Screener\nSettings" as settings
    database "Screener\nData" as data

    database "MDG User" as user
    database "factset Data" as factsetData

    database "Model\nPortfolios" as modpf

    component impData 
    component Oban   
    component MessageSender 
    component SMTP 

    component "fapi\nScreenerAPI" as fapi
    

}

interface "snowflake" as ftp
interface "externalsmtp" as exsmtp

Advisor - - browser
browser - - Kong : https://allspring.factsetdigitalsoutlions.com
Kong - - webserver : /screener/*
Kong - - CAS : /cas/*




webserver ..> browser : deploy once\nvuejs.app
browser <- -> Kong : /cas/* websocket\nconnection

fapi <- -> settings 
CAS - - user
CAS <- - modpf : keyvalue


webserver <- -> fapi
webserver <- -> CAS 

webserver <- -> Oban : user registration\nand authentication
webserver - -> MessageSender 

MessageSender - -> SMTP
SMTP - -> exsmtp : ships email off



fapi <- - data

impData <- - ftp : allspring data
impData <- - factsetData : factset data

data <- - impData : stores\ndata
user <- - impData : daily\nFA import
modpf <- - impData : daily\nFA import

Oban <- -> user  


@enduml

PlantUML version 1.2022.6(Tue Jun 21 17:34:49 UTC 2022)
(GPL source distribution)
Java Runtime: OpenJDK Runtime Environment
JVM: OpenJDK 64-Bit Server VM
Default Encoding: UTF-8
Language: en
Country: null
--></g></svg>